# xmcd
#
# Track frame offsets:
#	151
#	27494
#	47729
#	65256
#	85367
#	106334
#	124700
#	138944
#	152878
#	175444
#	194167
#	211671
#	227078
#	239725
#	259765
#
# Disc length: 3652 seconds
#
# Revision: 1
# Processed by: cddbd v1.5.2PL0 Copyright (c) Steve Scherf et al.
# Submitted via: EZCDAudioConverter 7.1.0.1
#
DISCID=da0e420f
DTITLE=群星 - 中国歌典·1950-1999年代经典歌曲 CD9 突飞猛进的时代（上）
DYEAR=2006
DGENRE=
TTITLE0=董文华 - 春天的故事
TTITLE1=彭丽媛 - 父老乡亲
TTITLE2=孙悦 - 祝你平安
TTITLE3=宋祖英 - 爱我中华
TTITLE4=董文华 - 长城长
TTITLE5=那英 - 雾里看花
TTITLE6=那英 - 山不转水转
TTITLE7=佟铁鑫 - 夕阳红
TTITLE8=韦唯 刘欢 - 亚洲雄风
TTITLE9=彭丽媛 - 在中国大地上
TTITLE10=刘斌 - 咱当兵的人
TTITLE11=李春波 - 一封家书
TTITLE12=刘欢 - 千万次的问
TTITLE13=毛宁 - 涛声依旧
TTITLE14=杨洪基 - 滚滚长江东逝水
EXTD=
EXTT0=
EXTT1=
EXTT2=
EXTT3=
EXTT4=
EXTT5=
EXTT6=
EXTT7=
EXTT8=
EXTT9=
EXTT10=
EXTT11=
EXTT12=
EXTT13=
EXTT14=
PLAYORDER=
